<mxfile host="app.diagrams.net" modified="2022-07-12T07:33:36.027Z" agent="5.0 (Windows NT 10.0; Win64; x64) AppleWebKit/537.36 (KHTML, like Gecko) Chrome/103.0.0.0 Safari/537.36" etag="kXw0uxrhwf1P8vDUREbB" version="20.0.4" type="github">
  <diagram id="0nC8IJFFu2EXKRchSI4s" name="Page-1">
    <mxGraphModel dx="1108" dy="450" grid="1" gridSize="10" guides="1" tooltips="1" connect="1" arrows="1" fold="1" page="1" pageScale="1" pageWidth="850" pageHeight="1100" math="0" shadow="0">
      <root>
        <mxCell id="0" />
        <mxCell id="1" parent="0" />
        <mxCell id="uqZK-2FspfEmbuBB7k6O-5" style="edgeStyle=orthogonalEdgeStyle;rounded=0;orthogonalLoop=1;jettySize=auto;html=1;entryX=0;entryY=0.5;entryDx=0;entryDy=0;fontSize=18;" parent="1" source="uqZK-2FspfEmbuBB7k6O-1" target="uqZK-2FspfEmbuBB7k6O-2" edge="1">
          <mxGeometry relative="1" as="geometry" />
        </mxCell>
        <mxCell id="uqZK-2FspfEmbuBB7k6O-1" value="&lt;font style=&quot;font-size: 18px;&quot;&gt;Requirement Analysis&lt;/font&gt;" style="rounded=0;whiteSpace=wrap;html=1;" parent="1" vertex="1">
          <mxGeometry x="270" y="160" width="120" height="80" as="geometry" />
        </mxCell>
        <mxCell id="uqZK-2FspfEmbuBB7k6O-6" style="edgeStyle=orthogonalEdgeStyle;rounded=0;orthogonalLoop=1;jettySize=auto;html=1;entryX=0;entryY=0.5;entryDx=0;entryDy=0;fontSize=18;" parent="1" source="uqZK-2FspfEmbuBB7k6O-2" target="uqZK-2FspfEmbuBB7k6O-4" edge="1">
          <mxGeometry relative="1" as="geometry" />
        </mxCell>
        <mxCell id="uqZK-2FspfEmbuBB7k6O-2" value="&lt;font style=&quot;font-size: 18px;&quot;&gt;Prototype&lt;/font&gt;" style="rounded=0;whiteSpace=wrap;html=1;" parent="1" vertex="1">
          <mxGeometry x="425" y="160" width="120" height="80" as="geometry" />
        </mxCell>
        <mxCell id="uqZK-2FspfEmbuBB7k6O-8" style="edgeStyle=orthogonalEdgeStyle;rounded=0;orthogonalLoop=1;jettySize=auto;html=1;fontSize=18;exitX=0;exitY=0.5;exitDx=0;exitDy=0;" parent="1" source="uqZK-2FspfEmbuBB7k6O-3" target="uqZK-2FspfEmbuBB7k6O-2" edge="1">
          <mxGeometry relative="1" as="geometry">
            <Array as="points">
              <mxPoint x="500" y="40" />
            </Array>
          </mxGeometry>
        </mxCell>
        <mxCell id="uqZK-2FspfEmbuBB7k6O-3" value="&lt;font style=&quot;font-size: 18px;&quot;&gt;Refine&lt;/font&gt;" style="rounded=0;whiteSpace=wrap;html=1;" parent="1" vertex="1">
          <mxGeometry x="510" width="120" height="80" as="geometry" />
        </mxCell>
        <mxCell id="uqZK-2FspfEmbuBB7k6O-7" style="edgeStyle=orthogonalEdgeStyle;rounded=0;orthogonalLoop=1;jettySize=auto;html=1;entryX=1;entryY=0.5;entryDx=0;entryDy=0;fontSize=18;" parent="1" source="uqZK-2FspfEmbuBB7k6O-4" target="uqZK-2FspfEmbuBB7k6O-3" edge="1">
          <mxGeometry relative="1" as="geometry">
            <Array as="points">
              <mxPoint x="660" y="40" />
            </Array>
          </mxGeometry>
        </mxCell>
        <mxCell id="uqZK-2FspfEmbuBB7k6O-11" style="edgeStyle=orthogonalEdgeStyle;rounded=0;orthogonalLoop=1;jettySize=auto;html=1;entryX=0;entryY=0.5;entryDx=0;entryDy=0;fontSize=24;" parent="1" source="uqZK-2FspfEmbuBB7k6O-4" target="uqZK-2FspfEmbuBB7k6O-10" edge="1">
          <mxGeometry relative="1" as="geometry" />
        </mxCell>
        <mxCell id="uqZK-2FspfEmbuBB7k6O-4" value="&lt;font style=&quot;font-size: 18px;&quot;&gt;Test&lt;/font&gt;" style="rounded=0;whiteSpace=wrap;html=1;" parent="1" vertex="1">
          <mxGeometry x="580" y="160" width="120" height="80" as="geometry" />
        </mxCell>
        <mxCell id="uqZK-2FspfEmbuBB7k6O-9" value="&lt;font style=&quot;font-size: 24px;&quot;&gt;User Design&lt;/font&gt;" style="text;html=1;strokeColor=none;fillColor=none;align=center;verticalAlign=middle;whiteSpace=wrap;rounded=0;fontSize=18;" parent="1" vertex="1">
          <mxGeometry x="510" y="100" width="150" height="40" as="geometry" />
        </mxCell>
        <mxCell id="uqZK-2FspfEmbuBB7k6O-13" style="edgeStyle=orthogonalEdgeStyle;rounded=0;orthogonalLoop=1;jettySize=auto;html=1;entryX=0;entryY=0.5;entryDx=0;entryDy=0;fontSize=24;" parent="1" source="uqZK-2FspfEmbuBB7k6O-10" target="uqZK-2FspfEmbuBB7k6O-12" edge="1">
          <mxGeometry relative="1" as="geometry" />
        </mxCell>
        <mxCell id="uqZK-2FspfEmbuBB7k6O-10" value="&lt;font style=&quot;font-size: 18px;&quot;&gt;Construction&lt;/font&gt;" style="rounded=0;whiteSpace=wrap;html=1;" parent="1" vertex="1">
          <mxGeometry x="730" y="160" width="120" height="80" as="geometry" />
        </mxCell>
        <mxCell id="uqZK-2FspfEmbuBB7k6O-12" value="&lt;font style=&quot;font-size: 18px;&quot;&gt;Cutover&lt;/font&gt;" style="rounded=0;whiteSpace=wrap;html=1;" parent="1" vertex="1">
          <mxGeometry x="880" y="160" width="120" height="80" as="geometry" />
        </mxCell>
      </root>
    </mxGraphModel>
  </diagram>
</mxfile>
